<svg width="60" height="60" viewBox="0 0 60 60" fill="none" xmlns="http://www.w3.org/2000/svg">
<path d="M50.4399 44.0636L54.6086 32.6061C55.8108 28.4814 56.5736 23.798 55.1705 19.9495C53.0861 13.301 48.3148 9.33956 42.8999 7.37767C37.5259 5.37182 31.273 5.37183 25.3778 9.13867C21.8496 11.179 19.4043 15.2253 17.6778 19.193L13.5876 30.3648" fill="#F9C000"/>
<path d="M46.3905 40.8579C41.4591 37.6529 35.203 35.4085 31.5146 34.0085C26.4608 32.4044 19.5266 30.0815 13.5907 30.4017L17.6809 19.2299C19.4042 15.2622 21.8495 11.2599 25.3809 9.17556C30.755 5.7289 36.4868 5.44952 41.5815 7.01276C41.5815 6.97195 58.3816 14.1007 46.3936 40.8547" fill="#FFDA00"/>
<path d="M52.2448 55.2758C58.9812 43.9439 39.3748 37.0097 31.5147 34.0088C24.8191 31.8837 14.6329 28.4402 8.17903 31.6859C5.69292 33.0451 4.20818 35.5689 4.0889 38.4129C3.80952 42.1766 7.41625 45.8618 10.1849 47.6636C17.4423 52.9498 46.0735 65.0476 52.248 55.2726" fill="#F9C000"/>
<path d="M46.6981 47.5757C48.6129 43.156 47.2851 41.5268 46.6447 41.0371C46.5725 40.99 46.5034 40.9429 46.4312 40.8959C46.3842 40.8707 46.3528 40.8582 46.3528 40.8582L46.3591 40.8488C41.4402 37.6783 35.1935 35.412 31.5177 34.0088C24.8221 31.8837 14.6359 28.4402 8.18209 31.6859C5.69597 33.0451 4.21123 35.5689 4.09195 38.4129C3.81258 42.1766 7.41931 45.8618 10.1879 47.6636C13.8198 50.3067 22.7943 54.6574 31.6339 57.1184L39.1801 52.7897C39.1801 52.7897 44.2779 53.1664 46.7012 47.5757H46.6981Z" fill="#FFDA00"/>
<path d="M34.2016 57.4796C40.3761 58.8796 44.4255 58.7195 44.9874 57.2379C45.1883 56.7168 44.9466 56.0796 44.2654 55.2352C41.3398 51.7477 31.072 46.8634 21.3693 44.3396C13.9517 42.3777 8.97947 42.3777 8.37678 44.0226C8.17588 44.5405 8.4176 45.1809 9.09877 46.0253C10.3826 47.5445 13.1481 49.3464 16.5571 51.1105" fill="black"/>
<path d="M39.6539 6.33507C40.2943 4.57407 42.2593 3.6512 44.0643 4.2947C45.8284 4.93506 46.7513 6.89697 46.111 8.69878C46.0701 8.73959 46.0701 8.81806 46.0293 8.85886C47.2316 9.49923 48.3554 10.2997 49.4383 11.2226C49.6392 10.8616 49.7993 10.5006 49.9594 10.0988C51.3626 6.2158 49.3567 1.8902 45.4674 0.446247C41.5782 -0.953763 37.2463 1.04894 35.8023 4.93507C35.683 5.33372 35.5607 5.69471 35.4822 6.09337C36.8853 6.09337 38.2476 6.21265 39.6131 6.49517C39.6131 6.41355 39.6539 6.37588 39.6539 6.33507Z" fill="#FFD600"/>
<path d="M39.6541 6.33524C39.6949 6.17515 39.7734 6.05588 39.855 5.89265C40.0967 5.49085 40.4577 4.97291 41.1797 4.53344C42.0209 4.05317 43.0631 3.93075 44.0676 4.29174C45.7533 4.89443 46.673 6.73391 46.1927 8.45724C46.2335 8.37562 46.2743 8.25634 46.312 8.17787C47.1941 5.7357 45.951 3.05182 43.5057 2.17289C41.0604 1.29082 38.3734 2.53387 37.4913 4.97605C37.3312 5.3747 37.2496 5.77336 37.2119 6.17516C38.0124 6.25677 38.816 6.33525 39.6164 6.49534C39.6164 6.41372 39.6572 6.37605 39.6572 6.33524" fill="#F9C000"/>
<path d="M49.96 10.0961C51.2846 6.53332 49.7182 2.64719 46.5101 0.927002C49.1563 3.2907 49.7183 7.13602 48.0734 10.1369C48.5537 10.4571 48.9963 10.8181 49.4357 11.2199C49.6366 10.8181 49.7967 10.4571 49.9568 10.0961" fill="#F9C000"/>
<path d="M32.4372 51.1923C32.4372 51.1515 33.0399 49.268 33.2377 48.4676C29.5493 46.8635 25.4183 45.3819 21.3281 44.2989C20.1667 43.9819 19.0837 43.7402 18.0416 43.5393C16.9994 45.181 16.3967 47.1429 16.3967 49.2649C16.3967 54.0708 19.564 58.1578 23.9336 59.5201C26.7807 60.082 30.5098 56.5161 32.4341 51.1923" fill="#F9C000"/>
<path d="M32.4375 51.1918C30.5133 56.4748 26.7841 60.0815 23.937 59.5196C24.9384 59.8398 26.0621 59.9999 27.1859 59.9999C32.6384 59.9999 37.1712 55.9568 37.8523 50.6675C36.4492 49.9048 34.886 49.142 33.2411 48.4263C33.0402 49.3052 32.4407 51.1918 32.4407 51.1918" fill="#CE9D00"/>
<path d="M35.4856 36.1875L49.4041 44.6409L51.0176 40.8113C45.1978 36.7682 37.8587 36.2974 35.4856 36.1906" fill="#F9C000"/>
<path d="M21.3314 44.3019C20.1668 43.9848 19.087 43.7431 18.0448 43.5422C17.5677 44.2925 17.1879 45.1149 16.9116 45.9844C17.326 46.0629 17.756 46.1571 18.1923 46.2575C18.8892 46.4176 19.5892 46.5808 20.2861 46.788C24.4296 47.8867 28.6924 49.3808 32.4812 51.0445C32.6194 50.5862 33.0714 49.1391 33.2409 48.4674C29.5525 46.8633 25.4215 45.3817 21.3314 44.2987V44.3019Z" fill="#CE9D00"/>
</svg>
