<svg width="16" height="16" viewBox="0 0 16 16" fill="none" xmlns="http://www.w3.org/2000/svg">
<path fill-rule="evenodd" clip-rule="evenodd" d="M10.7894 13.1137C11.0898 13.4065 11.5768 13.4066 11.8773 13.1137L14.4413 10.6141C14.7418 10.3213 14.7418 9.8464 14.4414 9.55348C14.141 9.26057 13.654 9.26053 13.3535 9.5534L11.3334 11.5227L9.31317 9.55301C9.01277 9.26011 8.52571 9.26011 8.2253 9.55301C7.9249 9.8459 7.9249 10.3208 8.2253 10.6137L10.7894 13.1137Z" fill="#666666"/>
<path fill-rule="evenodd" clip-rule="evenodd" d="M11.3334 13.3333C11.7016 13.3333 12.0001 12.9752 12.0001 12.5333V6.13334C12.0001 5.69151 11.7016 5.33334 11.3334 5.33334C10.9652 5.33334 10.6667 5.69151 10.6667 6.13334V12.5333C10.6667 12.9752 10.9652 13.3333 11.3334 13.3333Z" fill="#666666"/>
<path fill-rule="evenodd" clip-rule="evenodd" d="M2 7.33333C2 7.70152 2.33579 8 2.75001 8H7.24999C7.66421 8 8 7.70152 8 7.33333C8 6.96514 7.66421 6.66667 7.24999 6.66667H2.75001C2.33579 6.66667 2 6.96514 2 7.33333Z" fill="#666666"/>
<path fill-rule="evenodd" clip-rule="evenodd" d="M2 11.3333C2 11.7015 2.35818 12 2.80001 12H6.53332C6.97516 12 7.33333 11.7015 7.33333 11.3333C7.33333 10.9651 6.97516 10.6667 6.53332 10.6667H2.80001C2.35818 10.6667 2 10.9651 2 11.3333Z" fill="#666666"/>
<path fill-rule="evenodd" clip-rule="evenodd" d="M2 3.33333C2 3.70152 2.33579 4 2.75 4H11.25C11.6642 4 12 3.70152 12 3.33333C12 2.96514 11.6642 2.66667 11.25 2.66667H2.75C2.33579 2.66667 2 2.96514 2 3.33333Z" fill="#666666"/>
</svg>
