<svg width="24" height="24" viewBox="0 0 24 24" fill="none" xmlns="http://www.w3.org/2000/svg">
<path d="M15.4955 20.1552C15.4013 21.7426 13.8697 22.9997 12.0003 22.9999C10.0703 22.9999 8.50034 21.6599 8.50034 19.9999L15.4955 20.1552ZM12.0121 2.60242C14.929 2.6025 17.0493 3.87056 18.4251 5.48914C19.7906 7.08719 20.4427 9.04612 20.4427 10.4999V14.2499L21.891 17.9218C21.9737 18.1176 22.0001 18.4999 21.7503 18.7499C21.5005 18.9998 21.2175 18.9999 21.0003 18.9999H3.00034C2.78312 18.9999 2.50031 18.9998 2.25034 18.7499C2.00038 18.4999 2.0289 18.0552 2.11166 17.8593L3.55991 14.2499V10.4999C3.56 7.12839 6.15664 2.60248 12.0013 2.60242H12.0121ZM6.09311 1.60632C6.42109 1.40175 6.85366 1.50091 7.05893 1.828C7.26421 2.15528 7.16433 2.58707 6.83627 2.79187C5.31777 3.73989 4.09747 5.106 3.33432 6.72156C3.16929 7.07066 2.7517 7.2201 2.4017 7.05554C2.05211 6.89086 1.90215 6.47485 2.06674 6.12585C2.94523 4.26613 4.34836 2.69555 6.09311 1.60632ZM16.9076 1.82703C17.1138 1.50032 17.5469 1.40161 17.8744 1.6073C19.6064 2.69526 21.0196 4.26467 21.8988 6.12585C22.0634 6.47484 21.9134 6.89086 21.5638 7.05554C21.2138 7.22009 20.7962 7.07065 20.6312 6.72156C19.8687 5.10743 18.6385 3.74018 17.1273 2.79089C16.8 2.58524 16.7017 2.15367 16.9076 1.82703Z" fill="#1E1E23"/>
</svg>
