<svg width="142" height="41" viewBox="0 0 142 41" fill="none" xmlns="http://www.w3.org/2000/svg">
<g filter="url(#filter0_d_3074_383)">
<rect x="4" y="5.58582" width="134" height="29" rx="4" fill="#2E343A"/>
<path d="M15.1665 15.3458V14.0018H21.7465V15.3458H19.3525C19.4225 17.2078 20.7245 18.4258 22.1245 18.8878L21.2285 20.1618C20.2905 19.8258 19.0585 18.8598 18.5265 17.7118C18.1485 18.9298 16.8325 20.0918 15.6285 20.5118L14.6625 19.2238C16.4405 18.5938 17.6305 17.2218 17.6725 15.3458H15.1665ZM16.6085 21.1698H25.0645V25.7058H23.4125V22.4578H16.6085V21.1698ZM25.0505 20.5258H23.4125V17.5718H21.5645V16.2558H23.4125V13.2178H25.0505V20.5258ZM36.8498 25.5238H28.6458V20.7498H30.2838V21.9258H35.2258V20.7358H36.8498V25.5238ZM34.0218 19.5038C32.8878 19.7698 30.5218 19.9378 28.8558 19.9378H27.1758V16.1438H31.2358V15.1218H27.1198V13.8338H32.8598V17.3758H28.8138V18.6358C30.3678 18.7198 32.9018 18.5378 33.8678 18.2578L34.0218 19.5038ZM36.8498 20.1058H35.2258V13.2178H36.8498V20.1058ZM35.2258 24.2218V23.1858H30.2838V24.2218H35.2258ZM44.9531 21.1978H43.4831C43.0771 22.3178 42.3351 23.1018 41.1731 23.1018C39.2411 23.1018 38.4851 20.9038 38.4851 18.6078C38.4851 16.3398 39.2411 14.1558 41.1731 14.1558C42.3071 14.1558 43.0491 14.9118 43.4551 15.9758H44.9531V13.4558H46.4791V25.1178H44.9531V21.1978ZM48.9711 25.6918H47.4171V13.2178H48.9711V25.6918ZM42.3631 18.6218C42.3631 16.9558 42.0271 15.5838 41.1871 15.5838C40.3751 15.5838 40.0251 16.9558 40.0251 18.6218C40.0251 20.2878 40.3751 21.6458 41.1871 21.6458C42.0271 21.6458 42.3631 20.2878 42.3631 18.6218ZM43.8891 18.6218C43.8891 19.0558 43.8611 19.4758 43.7911 19.8818H44.9531V17.2918H43.7911C43.8611 17.7258 43.8891 18.1738 43.8891 18.6218ZM60.5743 23.1998C60.5743 24.7118 58.9643 25.6638 56.2063 25.6638C53.4483 25.6638 51.8383 24.7118 51.8383 23.1998C51.8383 21.6458 53.4483 20.6938 56.2063 20.6938C58.9643 20.6938 60.5743 21.6458 60.5743 23.1998ZM50.6063 15.4438V14.0998H57.1723V15.4438H54.8063C54.9323 17.1798 56.1923 18.3418 57.5503 18.7898C57.2703 19.2238 56.9623 19.6438 56.6683 20.0778C55.7163 19.7138 54.4983 18.7758 53.9663 17.6418C53.5883 18.8458 52.2723 20.0218 51.0683 20.4418C50.7323 20.0078 50.4243 19.5878 50.0883 19.1678C51.8383 18.5378 52.9863 17.2218 53.0843 15.4438H50.6063ZM56.9763 17.5158V16.1998H58.8523V13.2178H60.4903V20.6378H58.8523V17.5158H56.9763ZM56.2063 22.0098C54.5123 22.0098 53.5183 22.4438 53.5183 23.1998C53.5183 23.9278 54.5123 24.3618 56.2063 24.3618C57.9283 24.3618 58.9083 23.9278 58.9083 23.1998C58.9083 22.4438 57.9283 22.0098 56.2063 22.0098ZM76.6334 24.1238H65.3634V22.8358H70.1514V20.4278H66.3994V19.1258H68.2334L67.8834 16.2558L69.5214 16.0458L69.7734 19.1258H72.2654L72.7134 16.0738L74.2954 16.3398L73.7774 19.1258H75.5414V20.4278H71.7894V22.8358H76.6334V24.1238ZM75.5694 15.4578H66.3714V14.1558H75.5694V15.4578ZM87.4806 22.2618H85.8566V13.2178H87.4806V22.2618ZM87.7606 25.3558H79.1086V21.3658H80.7606V24.0678H87.7606V25.3558ZM77.5686 17.2218C77.5686 15.4578 78.8986 14.1418 80.9426 14.1418C83.0006 14.1418 84.3166 15.4578 84.3166 17.2218C84.3166 19.0138 83.0006 20.2878 80.9426 20.2878C78.8986 20.2878 77.5686 19.0138 77.5686 17.2218ZM79.2486 17.2218C79.2486 18.2158 79.8926 18.9438 80.9426 18.9438C82.0206 18.9438 82.6506 18.2158 82.6506 17.2218C82.6506 16.2698 82.0206 15.5418 80.9426 15.5418C79.8926 15.5418 79.2486 16.2698 79.2486 17.2218ZM98.5519 18.1738H92.0559V19.5318H98.9719V20.8198H90.4319V14.1978H98.8459V15.4858H92.0559V16.8858H98.5519V18.1738ZM100.26 22.8358V24.1238H88.9899V22.8358H100.26Z" fill="#3CE085"/>
<path d="M115.451 24.1378H104.181V22.8358H108.969V20.4138H105.539V14.0718H107.163V16.0038H112.469V14.0438H114.107V20.4138H110.607V22.8358H115.451V24.1378ZM112.469 19.1118V17.2638H107.163V19.1118H112.469ZM126.312 25.6918H124.674V13.2178H126.312V25.6918ZM122.476 14.5198C122.378 18.2858 120.712 21.3658 116.904 23.4378L115.896 22.2058C118.626 20.9598 120.488 18.3558 120.712 15.8778H116.652V14.5198H122.476Z" fill="white"/>
</g>
<g filter="url(#filter1_d_3074_383)">
<path fill-rule="evenodd" clip-rule="evenodd" d="M80.7071 2.29292C80.3166 1.9024 79.6834 1.9024 79.2929 2.29292L76 5.58582L84 5.58582L80.7071 2.29292Z" fill="#2E343A"/>
</g>
<defs>
<filter id="filter0_d_3074_383" x="0" y="3.58582" width="142" height="37" filterUnits="userSpaceOnUse" color-interpolation-filters="sRGB">
<feFlood flood-opacity="0" result="BackgroundImageFix"/>
<feColorMatrix in="SourceAlpha" type="matrix" values="0 0 0 0 0 0 0 0 0 0 0 0 0 0 0 0 0 0 127 0" result="hardAlpha"/>
<feOffset dy="2"/>
<feGaussianBlur stdDeviation="2"/>
<feColorMatrix type="matrix" values="0 0 0 0 0 0 0 0 0 0 0 0 0 0 0 0 0 0 0.05 0"/>
<feBlend mode="normal" in2="BackgroundImageFix" result="effect1_dropShadow_3074_383"/>
<feBlend mode="normal" in="SourceGraphic" in2="effect1_dropShadow_3074_383" result="shape"/>
</filter>
<filter id="filter1_d_3074_383" x="72" y="0" width="16" height="11.5858" filterUnits="userSpaceOnUse" color-interpolation-filters="sRGB">
<feFlood flood-opacity="0" result="BackgroundImageFix"/>
<feColorMatrix in="SourceAlpha" type="matrix" values="0 0 0 0 0 0 0 0 0 0 0 0 0 0 0 0 0 0 127 0" result="hardAlpha"/>
<feOffset dy="2"/>
<feGaussianBlur stdDeviation="2"/>
<feColorMatrix type="matrix" values="0 0 0 0 0 0 0 0 0 0 0 0 0 0 0 0 0 0 0.05 0"/>
<feBlend mode="normal" in2="BackgroundImageFix" result="effect1_dropShadow_3074_383"/>
<feBlend mode="normal" in="SourceGraphic" in2="effect1_dropShadow_3074_383" result="shape"/>
</filter>
</defs>
</svg>
