<svg width="20" height="20" viewBox="0 0 20 20" fill="none" xmlns="http://www.w3.org/2000/svg">
<path d="M10 1.25C14.8325 1.25 18.75 5.16751 18.75 10C18.75 14.8325 14.8325 18.75 10 18.75C5.16751 18.75 1.25 14.8325 1.25 10C1.25 5.16751 5.16751 1.25 10 1.25ZM12.1533 6.71387C11.8242 6.71404 11.557 6.98148 11.5566 7.31055V11.3076L8.4043 7.01367L8.32715 6.9248C7.91691 6.524 7.18389 6.80305 7.18359 7.41504V9.49023H6.05469C5.72532 9.49023 5.45821 9.75759 5.45801 10.0869C5.45807 10.4164 5.72524 10.6836 6.05469 10.6836H7.18359V12.9619C7.18379 13.2912 7.45091 13.5586 7.78027 13.5586C8.1096 13.5585 8.37676 13.2912 8.37695 12.9619V8.99121L11.5293 13.2861C11.916 13.812 12.7498 13.5387 12.75 12.8857V10.6836H14.0127L14.0732 10.6807C14.3741 10.6502 14.6093 10.3958 14.6094 10.0869C14.6092 9.77811 14.3741 9.52361 14.0732 9.49316L14.0127 9.49023H12.75V7.31055C12.7496 6.98141 12.4825 6.71393 12.1533 6.71387Z" fill="#09AB49"/>
</svg>
