<svg width="16" height="16" viewBox="0 0 16 16" fill="none" xmlns="http://www.w3.org/2000/svg">
<path d="M13.5338 0.933228C13.8648 0.933473 14.1332 1.2018 14.1334 1.53284V5.06702C14.1331 5.39803 13.8648 5.66638 13.5338 5.66663H9.99959C9.66855 5.66642 9.40022 5.39805 9.39998 5.06702C9.39998 4.73578 9.6684 4.46664 9.99959 4.46643H12.1168C12.0324 4.37001 11.945 4.27577 11.8541 4.18518L11.8531 4.1842C10.8778 3.20647 9.5234 2.60022 8.02205 2.60022C5.02591 2.60033 2.60039 5.02001 2.60017 7.99963C2.60017 10.9794 5.02578 13.3999 8.02205 13.4C10.7933 13.4 13.0783 11.3292 13.4049 8.66077C13.4451 8.33185 13.7439 8.09806 14.0728 8.13831C14.4017 8.17857 14.6355 8.47737 14.5953 8.80627C14.1956 12.0727 11.4037 14.6002 8.02205 14.6002C4.36724 14.6001 1.39998 11.6464 1.39998 7.99963C1.40019 4.35308 4.36737 1.40014 8.02205 1.40002C9.85258 1.40002 11.5091 2.14048 12.7017 3.33557C12.7803 3.41385 12.8576 3.49478 12.9332 3.57776V1.53284C12.9334 1.20165 13.2025 0.933228 13.5338 0.933228Z" fill="#1E1E23"/>
</svg>
