<svg width="200" height="200" viewBox="0 0 200 200" fill="none" xmlns="http://www.w3.org/2000/svg">
<g clip-path="url(#clip0_2034_4106)">
<rect x="36.7344" y="69.3877" width="130.612" height="53.0612" fill="white"/>
<path d="M179.464 56.1886C179.479 50.7851 177.625 48.6174 171.92 49.0258C149.893 50.628 127.866 52.026 105.822 53.3454C79.1517 54.9476 52.4653 56.4556 25.7789 57.885C22.0231 58.0892 20.4859 59.4872 20.5018 63.2414C20.5652 84.9811 20.5652 106.737 20.4067 128.476C20.375 132.592 22.0231 133.911 26.0166 134.005C31.357 134.115 36.6658 134.822 42.4816 135.325V155.117C50.7697 149.069 57.7107 143.901 64.7785 138.891C66.2047 137.885 68.0746 136.786 69.7069 136.849C81.402 137.288 93.0813 137.964 104.745 138.655C127.343 139.99 149.956 141.294 172.554 142.849C177.72 143.195 179.59 141.294 179.575 136.346C179.448 109.627 179.369 82.9077 179.448 56.1886H179.464ZM68.6451 115.988H42.7194V73.7657H52.4494V108.009H68.6451V115.988ZM86.2037 115.988H76.4736V73.7657H86.2037V115.988ZM114.95 115.988H103.477L92.0037 73.7657H102.209L109.198 102.04L117.169 73.7657H126.392L114.919 115.988H114.95ZM159.988 83.4103H141.367V90.3375H156.676V99.0554H141.367V108.009H159.813V115.988H132.873V73.7657H159.988V83.4103Z" fill="#A2A2A2"/>
</g>
<defs>
<clipPath id="clip0_2034_4106">
<rect width="159.184" height="106.122" fill="white" transform="translate(20.4062 48.9795)"/>
</clipPath>
</defs>
</svg>
