<svg width="79" height="41" viewBox="0 0 79 41" fill="none" xmlns="http://www.w3.org/2000/svg">
<g filter="url(#filter0_d_3050_1499)">
<rect x="4" y="5.58582" width="71" height="29" rx="4" fill="#2E343A"/>
<path d="M24.5626 25.5518H16.0786V22.2758H22.5466V21.5058H15.9946V20.2038H24.2126V23.4658H17.7026V24.2358H24.5626V25.5518ZM25.9906 17.1238H24.2126V19.4618H22.5466V13.2178H24.2126V15.7798H25.9906V17.1238ZM14.5246 16.5498C14.5246 14.8698 15.8966 13.6518 17.7586 13.6518C19.6206 13.6518 20.9786 14.8418 20.9786 16.5498C20.9786 18.2018 19.6206 19.3218 17.7586 19.3218C15.9806 19.3218 14.5246 18.2438 14.5246 16.5498ZM16.1346 16.5358C16.1346 17.3618 16.8066 17.9778 17.7586 17.9778C18.7386 17.9778 19.3966 17.2918 19.3966 16.5358C19.3966 15.6678 18.7526 14.9958 17.7586 14.9958C16.8766 14.9958 16.1346 15.6818 16.1346 16.5358ZM36.5719 25.5378H28.0879V21.2118H36.5719V25.5378ZM34.9479 24.2498V22.4578H29.7259V24.2498H34.9479ZM36.5719 20.5678H34.9479V13.2178H36.5719V20.5678ZM33.5759 18.4958L33.7439 19.7558C32.6239 20.0218 30.2439 20.1898 28.5779 20.1898H26.8979V16.3538H30.9299V15.2478H26.8559V13.9598H32.5539V17.5858H28.5359V18.8738C29.8519 18.9438 32.6099 18.7618 33.5759 18.4958Z" fill="#3CE085"/>
<path d="M51.7769 22.2618H50.1389V13.2178H51.7769V22.2618ZM52.0429 25.3558H43.3769V21.4498H45.0289V24.0678H52.0429V25.3558ZM49.0469 19.1118L48.1229 20.4138C47.1709 20.0498 45.8689 18.8878 45.3229 17.7398C44.9449 19.0138 43.5869 20.3018 42.4389 20.7078L41.4449 19.4058C43.2649 18.7478 44.4549 17.1238 44.4549 15.2478V13.9318H46.1629V15.1638C46.1629 17.0818 47.6049 18.6358 49.0469 19.1118ZM63.6882 23.2978C63.6882 24.7678 62.1062 25.6778 59.3202 25.6778C56.5622 25.6778 54.9662 24.7678 54.9662 23.2978C54.9662 21.8418 56.5622 20.9178 59.3202 20.9178C62.1062 20.9178 63.6882 21.8418 63.6882 23.2978ZM60.5661 19.3638C60.2862 19.7838 60.0202 20.2038 59.7542 20.6238C58.7882 20.3158 57.5002 19.4758 56.9822 18.4258C56.5481 19.5458 55.2742 20.6658 54.0562 21.0438C53.7482 20.6378 53.4541 20.2038 53.1601 19.7978C54.7282 19.2518 55.8622 18.2718 56.0862 16.7738H53.6921V15.4858H60.2441V16.7738H57.8642C58.1162 18.2438 59.3062 18.9998 60.5661 19.3638ZM63.5902 13.2178V20.7918H61.9522V18.4398H60.0481V17.1238H61.9522V13.2178H63.5902ZM61.9522 23.2978C61.9522 22.6538 61.0282 22.1918 59.3202 22.1918C57.6402 22.1918 56.6882 22.6538 56.6882 23.2978C56.6882 23.9558 57.6402 24.3898 59.3202 24.3898C61.0282 24.3898 61.9522 23.9558 61.9522 23.2978ZM55.1622 14.8418V13.5538H58.7882V14.8418H55.1622Z" fill="white"/>
</g>
<g filter="url(#filter1_d_3050_1499)">
<path fill-rule="evenodd" clip-rule="evenodd" d="M63.7071 2.29292C63.3166 1.9024 62.6834 1.9024 62.2929 2.29292L59 5.58582L67 5.58582L63.7071 2.29292Z" fill="#2E343A"/>
</g>
<defs>
<filter id="filter0_d_3050_1499" x="0" y="3.58582" width="79" height="37" filterUnits="userSpaceOnUse" color-interpolation-filters="sRGB">
<feFlood flood-opacity="0" result="BackgroundImageFix"/>
<feColorMatrix in="SourceAlpha" type="matrix" values="0 0 0 0 0 0 0 0 0 0 0 0 0 0 0 0 0 0 127 0" result="hardAlpha"/>
<feOffset dy="2"/>
<feGaussianBlur stdDeviation="2"/>
<feColorMatrix type="matrix" values="0 0 0 0 0 0 0 0 0 0 0 0 0 0 0 0 0 0 0.05 0"/>
<feBlend mode="normal" in2="BackgroundImageFix" result="effect1_dropShadow_3050_1499"/>
<feBlend mode="normal" in="SourceGraphic" in2="effect1_dropShadow_3050_1499" result="shape"/>
</filter>
<filter id="filter1_d_3050_1499" x="55" y="0" width="16" height="11.5858" filterUnits="userSpaceOnUse" color-interpolation-filters="sRGB">
<feFlood flood-opacity="0" result="BackgroundImageFix"/>
<feColorMatrix in="SourceAlpha" type="matrix" values="0 0 0 0 0 0 0 0 0 0 0 0 0 0 0 0 0 0 127 0" result="hardAlpha"/>
<feOffset dy="2"/>
<feGaussianBlur stdDeviation="2"/>
<feColorMatrix type="matrix" values="0 0 0 0 0 0 0 0 0 0 0 0 0 0 0 0 0 0 0.05 0"/>
<feBlend mode="normal" in2="BackgroundImageFix" result="effect1_dropShadow_3050_1499"/>
<feBlend mode="normal" in="SourceGraphic" in2="effect1_dropShadow_3050_1499" result="shape"/>
</filter>
</defs>
</svg>
