<svg width="30" height="30" viewBox="0 0 30 30" fill="none" xmlns="http://www.w3.org/2000/svg">
<path d="M15 1.875C22.2487 1.875 28.125 7.75126 28.125 15C28.125 22.2487 22.2487 28.125 15 28.125C7.75126 28.125 1.875 22.2487 1.875 15C1.875 7.75126 7.75126 1.875 15 1.875ZM18.2305 10.0713C17.7366 10.0713 17.3365 10.4721 17.3359 10.9658V16.9609L12.6074 10.5205L12.4902 10.3867C11.8748 9.78576 10.7758 10.2041 10.7754 11.1221V14.2354H9.08203C8.58792 14.2354 8.18672 14.6368 8.18652 15.1309C8.18678 15.6249 8.58796 16.0254 9.08203 16.0254H10.7754V19.4434C10.7758 19.9371 11.1761 20.3377 11.6699 20.3379C12.1639 20.3379 12.565 19.9372 12.5654 19.4434V13.4873L17.2939 19.9287C17.8738 20.7181 19.1245 20.3085 19.125 19.3291V16.0254H21.0195L21.1104 16.0205C21.5616 15.9748 21.9148 15.5941 21.915 15.1309C21.9149 14.6676 21.5616 14.2859 21.1104 14.2402L21.0195 14.2354H19.125V10.9658C19.1244 10.4721 18.7243 10.0714 18.2305 10.0713Z" fill="#00DE5A"/>
</svg>
