<svg width="16" height="16" viewBox="0 0 16 16" fill="none" xmlns="http://www.w3.org/2000/svg">
<path d="M13.5338 0.933197C13.8648 0.933443 14.1332 1.20177 14.1334 1.53281V5.06699C14.1331 5.398 13.8648 5.66635 13.5338 5.6666H9.99959C9.66855 5.66638 9.40022 5.39802 9.39998 5.06699C9.39998 4.73575 9.6684 4.46661 9.99959 4.4664H12.1168C12.0324 4.36998 11.945 4.27574 11.8541 4.18515L11.8531 4.18417C10.8778 3.20644 9.5234 2.60019 8.02205 2.60019C5.02591 2.6003 2.60039 5.01998 2.60017 7.9996C2.60017 10.9794 5.02578 13.3999 8.02205 13.4C10.7933 13.4 13.0783 11.3292 13.4049 8.66074C13.4451 8.33182 13.7439 8.09803 14.0728 8.13828C14.4017 8.17854 14.6355 8.47734 14.5953 8.80624C14.1956 12.0727 11.4037 14.6002 8.02205 14.6002C4.36724 14.6001 1.39998 11.6463 1.39998 7.9996C1.40019 4.35305 4.36737 1.4001 8.02205 1.39999C9.85258 1.39999 11.5091 2.14045 12.7017 3.33554C12.7803 3.41382 12.8576 3.49475 12.9332 3.57773V1.53281C12.9334 1.20162 13.2025 0.933197 13.5338 0.933197Z" fill="#1E1E23"/>
</svg>
