<svg width="55" height="56" viewBox="0 0 55 56" fill="none" xmlns="http://www.w3.org/2000/svg">
<g filter="url(#filter0_d_2902_3562)">
<path d="M41.0492 8.66927C38.9705 6.60992 36.4007 4.969 33.4462 3.95984C22.9951 0.382648 11.6356 5.94535 8.07554 16.3898C5.39116 24.258 7.89549 32.643 13.7635 37.8365C15.6867 39.5431 17.9701 40.905 20.5563 41.7911C31.0074 45.3683 42.3669 39.8056 45.9269 29.3612C48.4804 21.8704 46.328 13.9038 41.0492 8.66927Z" fill="#00DE5A"/>
<path d="M28.0819 5.87072C32.6272 5.87072 36.7676 7.57839 39.9299 10.3766C36.6749 7.01199 32.1212 4.90698 27.07 4.90698C17.17 4.91544 9.15045 12.955 9.15045 22.8798C9.15045 28.2396 11.5116 33.0413 15.222 36.3383C12.0935 33.1005 10.1624 28.7045 10.1624 23.8436C10.1624 13.9188 18.1903 5.87072 28.0819 5.87072Z" fill="#00A650"/>
<path d="M44.4629 22.8795C44.4629 18.1619 42.5888 13.8955 39.5525 10.7532C36.4835 8.03746 32.4733 6.38013 28.0538 6.38013C18.4539 6.37193 10.6627 14.1827 10.6627 23.8066C10.6627 28.5243 12.5368 32.7907 15.5731 35.933C18.6421 38.6487 22.6523 40.306 27.0718 40.306C36.6799 40.306 44.4629 32.5035 44.4629 22.8713V22.8795Z" fill="black"/>
<path d="M26.0599 39.872C21.5146 39.872 17.3742 38.1643 14.2119 35.3661C17.4669 38.7307 22.0206 40.8357 27.0718 40.8357C36.9718 40.8272 44.9913 32.7876 44.9913 22.8629C44.9913 17.5031 42.6302 12.7013 38.9198 9.40435C42.0483 12.6422 43.9794 17.0382 43.9794 21.8991C43.9794 31.8239 35.9515 39.872 26.0599 39.872Z" fill="#00F475"/>
<path d="M44.4135 22.3979C44.4135 17.5369 42.4824 13.1409 39.3539 9.90312C36.1916 7.1049 32.0596 5.39722 27.5059 5.39722C17.6143 5.38877 9.58636 13.4368 9.58636 23.3532C9.58636 28.2141 11.5175 32.6101 14.646 35.8479C17.8083 38.6461 21.9403 40.3538 26.494 40.3538C36.394 40.3538 44.4135 32.3142 44.4135 22.3894V22.3979Z" fill="#00DE5A"/>
<path d="M34.2633 21.1484V14.995H30.6623V25.1605L23.5504 14.995H19.7366V21.1484H15.6445V24.6354H19.7366V30.756H23.3376V20.5905L30.4495 30.756H34.2633V24.6354H38.3554V21.1484H34.2633Z" fill="black"/>
</g>
<rect y="36.8755" width="55" height="19" rx="9.5" fill="#303038"/>
<path d="M8.76074 49.8755V43.1992H8.6748L6.70361 44.6279V43.6074L8.76611 42.125H9.72754V49.8755H8.76074ZM14.2615 50.0581C12.5481 50.0581 11.5276 48.4951 11.5276 46.0029V45.9922C11.5276 43.5 12.5481 41.9424 14.2615 41.9424C15.9749 41.9424 17.0062 43.5 17.0062 45.9922V46.0029C17.0062 48.4951 15.9749 50.0581 14.2615 50.0581ZM14.2615 49.2148C15.3733 49.2148 16.034 47.9795 16.034 46.0029V45.9922C16.034 44.0156 15.3733 42.791 14.2615 42.791C13.1497 42.791 12.4998 44.0156 12.4998 45.9922V46.0029C12.4998 47.9795 13.1497 49.2148 14.2615 49.2148ZM19.7408 46.2017C18.7525 46.2017 18.1563 45.396 18.1563 44.1123V44.1069C18.1563 42.8232 18.7525 42.0229 19.7408 42.0229C20.7291 42.0229 21.3307 42.8232 21.3307 44.1069V44.1123C21.3307 45.396 20.7291 46.2017 19.7408 46.2017ZM20.3209 49.8755H19.4508L24.7252 42.125H25.5953L20.3209 49.8755ZM19.7408 45.5625C20.2726 45.5625 20.5841 45.02 20.5841 44.1123V44.1069C20.5841 43.1992 20.2726 42.6621 19.7408 42.6621C19.2091 42.6621 18.9029 43.1992 18.9029 44.1069V44.1123C18.9029 45.02 19.2091 45.5625 19.7408 45.5625ZM25.2945 49.9775C24.3062 49.9775 23.7101 49.1719 23.7101 47.8882V47.8828C23.7101 46.5991 24.3062 45.7988 25.2945 45.7988C26.2828 45.7988 26.8844 46.5991 26.8844 47.8828V47.8882C26.8844 49.1719 26.2828 49.9775 25.2945 49.9775ZM25.2945 49.3384C25.8263 49.3384 26.1378 48.7959 26.1378 47.8882V47.8828C26.1378 46.9751 25.8263 46.438 25.2945 46.438C24.7628 46.438 24.4566 46.9751 24.4566 47.8828V47.8882C24.4566 48.7959 24.7628 49.3384 25.2945 49.3384ZM30.7796 42.4835V41.7795H35.9606V42.4835H33.8156C33.8156 42.6815 33.8156 42.9345 33.8266 43.0555C33.9036 44.3645 35.0696 45.4315 36.1696 45.7945L35.7076 46.4655C34.7836 46.0915 33.7826 45.1345 33.3866 44.2655C33.1226 45.1675 31.9676 46.3225 30.9336 46.7735L30.4826 46.1025C31.6926 45.6405 32.9136 44.4195 32.9576 43.0555C32.9686 42.9345 32.9686 42.6705 32.9686 42.4835H30.7796ZM31.9786 47.2685H38.3916V50.6455H37.5446V47.9615H31.9786V47.2685ZM38.3806 46.7625H37.5446V44.2875H35.6196V43.5945H37.5446V41.0315H38.3806V46.7625ZM47.6092 50.5135H41.3722V46.8395H42.2082V48.0165H46.7732V46.8175H47.6092V50.5135ZM46.7732 49.8205V48.6985H42.2082V49.8205H46.7732ZM47.5982 46.2895H46.7622V41.0315H47.5982V46.2895ZM45.4202 45.1125L45.5192 45.7945C44.5292 45.9595 43.0002 46.0585 41.2952 46.0695H40.2282V43.3965H43.6492V42.1865H40.1842V41.5045H44.4852V44.0675H41.0642V45.3655C42.5712 45.3655 44.4192 45.3105 45.4202 45.1125Z" fill="white"/>
<defs>
<filter id="filter0_d_2902_3562" x="3.16602" y="2.14577e-06" width="47.668" height="47.668" filterUnits="userSpaceOnUse" color-interpolation-filters="sRGB">
<feFlood flood-opacity="0" result="BackgroundImageFix"/>
<feColorMatrix in="SourceAlpha" type="matrix" values="0 0 0 0 0 0 0 0 0 0 0 0 0 0 0 0 0 0 127 0" result="hardAlpha"/>
<feOffset dy="0.958495"/>
<feGaussianBlur stdDeviation="1.91699"/>
<feColorMatrix type="matrix" values="0 0 0 0 0 0 0 0 0 0 0 0 0 0 0 0 0 0 0.1 0"/>
<feBlend mode="normal" in2="BackgroundImageFix" result="effect1_dropShadow_2902_3562"/>
<feBlend mode="normal" in="SourceGraphic" in2="effect1_dropShadow_2902_3562" result="shape"/>
</filter>
</defs>
</svg>
