<svg width="24" height="24" viewBox="0 0 24 24" fill="none" xmlns="http://www.w3.org/2000/svg">
<path d="M11.9951 1.5C14.7751 1.5 16.8071 2.78024 18.126 4.41016C19.4213 6.01119 20.0537 7.9775 20.0537 9.45898V14.3477L21.4346 17.7285C21.567 18.0527 21.4945 18.4272 21.252 18.6758L21.2432 18.6855C21.0847 18.8479 20.8696 18.9384 20.6455 18.9385H16.0664C15.9615 19.5274 15.7419 20.1927 15.3428 20.792C14.7029 21.7525 13.6293 22.5 12.0234 22.5C10.4188 22.5 9.34465 21.7561 8.7041 20.7959C8.3039 20.1959 8.08516 19.5294 7.98047 18.9385H3.3457C3.06289 18.9385 2.79833 18.794 2.6416 18.5527C2.48489 18.3114 2.45624 18.0057 2.56543 17.7383L3.94629 14.3574V9.46875C3.94629 6.06222 6.42057 1.5001 11.9951 1.5ZM9.71094 18.9385C9.79165 19.2359 9.91683 19.5443 10.0996 19.8184C10.4429 20.3329 11.0079 20.7676 12.0234 20.7676C13.0373 20.7676 13.6023 20.3318 13.9463 19.8154C14.1285 19.5419 14.2532 19.2342 14.334 18.9385H9.71094ZM11.9951 3.23242C7.57685 3.23252 5.63672 6.77368 5.63672 9.46875V14.5312C5.63669 14.6459 5.61448 14.7594 5.57129 14.8652L4.61523 17.2061H19.3887L18.4287 14.8555C18.3855 14.7496 18.3633 14.6362 18.3633 14.5215V9.45898C18.3632 8.40945 17.8869 6.82907 16.8252 5.5166C15.7867 4.23303 14.2115 3.23242 11.9951 3.23242Z" fill="#1E1E23"/>
</svg>
