<svg width="24" height="24" viewBox="0 0 24 24" fill="none" xmlns="http://www.w3.org/2000/svg">
<path d="M17.7002 1.00024C18.857 1.00035 19.7996 1.94304 19.7998 3.09985V16.9407H21.0303C21.5272 16.9408 21.9296 17.3432 21.9297 17.8401V19.5598C21.9297 21.2003 20.7184 22.7003 19.0303 22.7004H5.62012C5.54635 22.7004 5.47486 22.6898 5.40625 22.6731C4.34672 22.5715 3.49783 21.9616 2.92871 21.1252C2.31415 20.2221 2.00001 19.0357 2 17.7903V3.09985C2.00021 1.94311 2.94286 1.00046 4.09961 1.00024H17.7002ZM9.24512 18.7405C9.20985 19.5082 8.99859 20.2612 8.63086 20.9006H19.0303C19.5419 20.9004 20.1299 20.399 20.1299 19.5598V18.7405H9.24512ZM4.09961 2.80005C3.93697 2.80027 3.80002 2.93721 3.7998 3.09985V17.7903C3.79981 18.7548 4.04656 19.5682 4.41699 20.1125C4.77763 20.6425 5.22621 20.8898 5.71973 20.8899V20.8938C6.63104 20.8341 7.4502 19.9621 7.4502 18.51V17.8401C7.45025 17.3432 7.85275 16.9409 8.34961 16.9407H18V3.09985C17.9998 2.93715 17.8629 2.80016 17.7002 2.80005H4.09961Z" fill="#1E1E23"/>
<path d="M15.0005 10.0999C15.4974 10.1001 15.8999 10.5033 15.8999 11.0002C15.8997 11.497 15.4972 11.8994 15.0005 11.8997H7.00049C6.50356 11.8997 6.10031 11.4971 6.1001 11.0002C6.1001 10.5032 6.50343 10.0999 7.00049 10.0999H15.0005ZM15.0005 6.09985C15.4974 6.10006 15.8999 6.50332 15.8999 7.00024C15.8997 7.49699 15.4972 7.89945 15.0005 7.89966H7.00049C6.50356 7.89966 6.10031 7.49712 6.1001 7.00024C6.1001 6.50319 6.50343 6.09985 7.00049 6.09985H15.0005Z" fill="#1E1E23"/>
</svg>
