<svg width="15" height="15" viewBox="0 0 15 15" fill="none" xmlns="http://www.w3.org/2000/svg">
<path d="M7.2125 10.2938H6.98125C6.74998 10.2938 6.5625 10.4813 6.5625 10.7125C6.5625 10.9438 6.74998 11.1313 6.98125 11.1313H8.4125C8.64377 11.1313 8.83125 10.9438 8.83125 10.7125C8.83125 10.4813 8.64377 10.2938 8.4125 10.2938H8.18125V6.36877C8.18125 6.09263 7.95739 5.86877 7.68125 5.86877H6.98125C6.74998 5.86877 6.5625 6.05626 6.5625 6.28752C6.5625 6.51879 6.74998 6.70627 6.98125 6.70627H7.2125V10.2938Z" fill="#929294"/>
<path d="M7.68745 5.13125C7.88745 5.13125 8.06245 5.075 8.1937 4.95C8.32495 4.8125 8.38745 4.6375 8.38745 4.43125C8.38745 4.225 8.32495 4.06875 8.1937 3.94375C8.06245 3.8125 7.8937 3.75 7.69995 3.75C7.5062 3.75 7.32495 3.8125 7.1937 3.94375C7.0687 4.06875 7.01245 4.24375 7.01245 4.45625C7.01245 4.64375 7.0687 4.80625 7.18745 4.9375H7.1937C7.32495 5.0625 7.4937 5.11875 7.68745 5.11875V5.13125Z" fill="#929294"/>
<path fill-rule="evenodd" clip-rule="evenodd" d="M7.5 1.81262C4.35888 1.81262 1.8125 4.359 1.8125 7.50012C1.8125 10.6412 4.35888 13.1876 7.5 13.1876C10.6411 13.1876 13.1875 10.6412 13.1875 7.50012C13.1875 4.359 10.6411 1.81262 7.5 1.81262ZM0.6875 7.50012C0.6875 3.73768 3.73756 0.687622 7.5 0.687622C11.2624 0.687622 14.3125 3.73768 14.3125 7.50012C14.3125 11.2626 11.2624 14.3126 7.5 14.3126C3.73756 14.3126 0.6875 11.2626 0.6875 7.50012Z" fill="#929294"/>
</svg>
